<svg width="36" height="36" viewBox="0 0 36 36" fill="none" xmlns="http://www.w3.org/2000/svg">
<rect width="36" height="36" rx="4" fill="white"/>
<path d="M31.858 24.1045C31.858 24.1041 31.858 24.1037 31.858 24.1032V24.1057C31.858 24.1053 31.858 24.1049 31.858 24.1045C31.8578 25.2814 31.6216 26.4059 31.1928 27.4355C29.8368 30.6927 26.5597 32.99 22.7253 32.99H8.1403C7.51108 32.99 7 32.4925 7 31.8801V28.5479C7 27.9354 7.51108 27.438 8.1403 27.438L22.7253 27.438C24.726 27.438 26.3286 25.7606 26.1334 23.7783C25.9639 22.0534 24.405 20.771 22.6226 20.771L8.1403 20.771C7.51108 20.771 7 20.2736 7 19.6611L7 16.3289C7 15.7164 7.51108 15.219 8.1403 15.219L21.3642 15.219C23.3648 15.219 24.9674 13.5416 24.7722 11.5593C24.6027 9.83443 23.0438 8.55204 21.2614 8.55204L8.1403 8.55204C7.51108 8.55204 7 8.05458 7 7.44213L7 4.10991C7 3.49746 7.51108 3 8.1403 3L21.3642 3C25.1985 3 28.4782 5.29731 29.8342 8.55454C30.2631 9.58445 30.4968 10.7094 30.4968 11.8868C30.4968 13.0642 30.2606 14.1891 29.8317 15.219C29.5543 15.8914 29.1922 16.5214 28.7607 17.1013C28.6734 17.2188 28.6914 17.3763 28.8018 17.4713C29.8394 18.3712 30.6638 19.4986 31.1954 20.7735C31.6241 21.8031 31.8578 22.9275 31.858 24.1045Z" fill="#087E39"/>
<path d="M31.858 24.1032C31.858 24.1037 31.858 24.1041 31.858 24.1045C31.858 24.1049 31.858 24.1053 31.858 24.1057V24.1032Z" fill="#087E39"/>
</svg>
